<?xml version="1.0" encoding="utf-8"?>
<!-- Generator: Adobe Illustrator 23.0.1, SVG Export Plug-In . SVG Version: 6.00 Build 0)  -->
<svg version="1.1" id="Capa_1" xmlns="http://www.w3.org/2000/svg" xmlns:xlink="http://www.w3.org/1999/xlink" x="0px" y="0px"
	 viewBox="0 0 512 384" style="enable-background:new 0 0 512 384;" xml:space="preserve">
<path d="M464,0H175.2c-14.5,0-28,6.4-37.2,17.6L3.6,181.9c-4.8,5.9-4.8,14.4,0,20.2L138,366.4c9.2,11.2,22.7,17.6,37.2,17.6H464
	c26.5,0,48-21.5,48-48V48C512,21.5,490.5,0,464,0z M480,336c0,8.8-7.2,16-16,16H175.2c-4.8,0-9.3-2.1-12.4-5.9L36.7,192L162.8,37.9
	c3.1-3.7,7.6-5.9,12.4-5.9H464c8.8,0,16,7.2,16,16C480,48,480,336,480,336z"/>
<path d="M356.7,100.7L288,169.4l-68.7-68.7l-22.6,22.6l68.7,68.7l-68.7,68.7l22.6,22.6l68.7-68.7l68.7,68.7l22.6-22.6L310.6,192
	l68.7-68.7L356.7,100.7z"/>
</svg>
