<?xml version="1.0" encoding="utf-8"?>
<!-- Generator: Adobe Illustrator 23.0.1, SVG Export Plug-In . SVG Version: 6.00 Build 0)  -->
<svg version="1.1" id="Слой_1" xmlns="http://www.w3.org/2000/svg" xmlns:xlink="http://www.w3.org/1999/xlink" x="0px" y="0px"
	 viewBox="0 0 33 32.9" style="enable-background:new 0 0 33 32.9;" xml:space="preserve">
<style type="text/css">
	.st0{fill:#231F20;}
</style>
<g>
	<path class="st0" d="M13.4,0.3c-2.6,1.1-2.5,3.9-2.4,5.2l0.1,4.6c0,1.1-0.2,1.7-0.6,2.1c-0.8-1.2-2.3-1.7-3.7-1.1l-4.9,2
		c-1.5,0.6-2.3,2.4-1.6,4L6.1,31c0.6,1.5,2.4,2.3,4,1.6l4.9-2c1-0.4,1.7-1.4,1.8-2.5c1.6,0,3.4-0.3,5-1l6.1-2.6
		c4.3-1.8,6.3-6.7,4.5-11L30.5,9c-1.3-3-4.7-4.4-7.7-3.2l-2,0.8l-1.7-4.1C18.1,0.4,15.6-0.6,13.4,0.3L13.4,0.3z M13.8,27.7
		c0,0,0,0.1-0.1,0.1l-4.9,2c0,0-0.1,0-0.1-0.1L2.9,15.8c0,0,0-0.1,0.1-0.1l4.9-2c0,0,0.1,0,0.1,0.1L13.8,27.7L13.8,27.7z M23.9,8.7
		c1.5-0.6,3.3,0.1,3.9,1.6l1.9,4.5c1.2,2.8-0.2,6-2.9,7.1l-6.1,2.6c-1.8,0.7-3.7,0.9-4.7,0.6l-4.3-10.2c1.2-0.7,2.5-2,2.4-4.9
		L14,5.4c-0.1-1.9,0.3-2.2,0.6-2.3c0.7-0.3,1.5,0,1.8,0.7l2.3,5.5c0.3,0.8,1.2,1.1,1.9,0.8L23.9,8.7z"/>
</g>
</svg>
