<?xml version="1.0" encoding="utf-8"?>
<!-- Generator: Adobe Illustrator 23.0.1, SVG Export Plug-In . SVG Version: 6.00 Build 0)  -->
<svg version="1.1" id="Layer_1" xmlns="http://www.w3.org/2000/svg" xmlns:xlink="http://www.w3.org/1999/xlink" x="0px" y="0px"
	 viewBox="0 0 366.5 374.5" style="enable-background:new 0 0 366.5 374.5;" xml:space="preserve">
<style type="text/css">
	.st0{fill:#231F20;}
</style>
<g>
	<g>
		<path class="st0" d="M344.2,270c20.6-34.8,26.9-77.7,18.9-120.4c-3.2-16.8-8.6-33-16.1-48.1c-2.5-4.9-8.5-7-13.4-4.5
			c-4.9,2.5-7,8.5-4.5,13.4c6.7,13.4,11.5,27.8,14.3,42.8C360,241.7,301.4,327,213,343.5c-29.5,5.5-59.9,2.8-87.9-7.9
			c-2.6-1-5.6-0.9-8.1,0.4c-25.7,13-61.9,20-91.2,18.2c15-29.9,19.2-54.6,21.3-77c0.2-2.2-0.3-4.4-1.5-6.3
			c-11.3-17.6-18.9-37.1-22.8-57.9C6.3,124.6,64.9,39.2,153.3,22.8c41.8-7.8,84.3,0.8,119.8,24.3c4.6,3,10.8,1.8,13.9-2.8
			c3-4.6,1.8-10.8-2.8-13.9c-39.8-26.3-87.6-36-134.5-27.3C50.4,21.6-15.4,117.4,3.1,216.7c4.1,22.1,12.1,43,23.7,62
			c-2.7,25.7-8.3,49.2-25.5,78.7c-1.6,2.8-1.8,6.3-0.4,9.2c1.4,3,4.1,5.1,7.3,5.6c8.4,1.5,17.5,2.2,27,2.2c29,0,61.4-6.8,86.9-18.7
			c23.1,8.2,47.7,13.3,71.9,10.1C251.6,358.4,308.4,330.3,344.2,270z"/>
		<path class="st0" d="M312.9,78.4c1.5,0,3-0.3,4.5-1.1c4.9-2.5,6.9-8.5,4.5-13.4l0-0.1c-2.5-4.9-8.5-6.9-13.4-4.4
			c-4.9,2.5-6.9,8.5-4.5,13.4C305.7,76.3,309.2,78.4,312.9,78.4L312.9,78.4z"/>
		<path class="st0" d="M203.8,78.3c-18.9,0-25.8,18.1-28.8,25.8l-11.2,29.3c-2.8,7.2-5.6,10.1-9.4,11.2
			c-1.9-9.4-10.3-16.6-20.2-16.6H98.3c-11.4,0-20.7,9.3-20.7,20.7v102c0,11.4,9.3,20.7,20.7,20.7h35.9c7.7,0,14.4-4.2,18-10.5
			c9.7,4.4,22,7.1,33.9,7.1h45.2c31.4,0,56.9-25.5,56.9-56.9v-32.8c0-22.1-18-40.1-40.2-40.1h-14.8v-30.4
			C233.2,91.5,220,78.3,203.8,78.3L203.8,78.3z M134.9,250.7c0,0.3-0.3,0.7-0.7,0.7H98.3c-0.3,0-0.7-0.3-0.7-0.7v-102
			c0-0.3,0.3-0.7,0.7-0.7h35.9c0.3,0,0.7,0.3,0.7,0.7L134.9,250.7L134.9,250.7z M248,158.1c11.1,0,20.2,9,20.2,20.1V211
			c0,20.4-16.6,36.9-36.9,36.9h-45.2c-12.9,0-25.4-4.3-31.2-8.3v-74.8c9.4-1.3,20.7-6.2,27.7-24.3l11.2-29.3c4.6-12,7.6-13,10.1-13
			c5.2,0,9.4,4.2,9.4,9.4v40.4c0,5.5,4.5,10,10,10L248,158.1z"/>
	</g>
</g>
</svg>
