<?xml version="1.0" encoding="utf-8"?>
<!-- Generator: Adobe Illustrator 23.0.1, SVG Export Plug-In . SVG Version: 6.00 Build 0)  -->
<svg version="1.1" xmlns="http://www.w3.org/2000/svg" xmlns:xlink="http://www.w3.org/1999/xlink" x="0px" y="0px"
	 viewBox="0 0 366.5 374.5" style="enable-background:new 0 0 366.5 374.5;" xml:space="preserve">
<style type="text/css">
	.st0{fill:#231F20;}
	.st1{fill:#FFFFFF;}
	.st2{fill:none;stroke:#231F20;stroke-width:31.1811;stroke-miterlimit:10;}
</style>
<g id="Layer_1">
	<path class="st0" d="M301.3,374.5H65.2c-36,0-65.2-29.2-65.2-65.2V65.2C0,29.2,29.2,0,65.2,0h236.1c36,0,65.2,29.2,65.2,65.2v244.1
		C366.5,345.3,337.3,374.5,301.3,374.5z"/>
</g>
<g id="Слой_2">
	<g>
		<g>
			<path class="st1" d="M303.8,83.7h-48.5c-9.2,0-17.5,5.5-21,14l-46.1,107.5c0,0,13.3,23.1,26.9,48.5l36.4-84
				c4.9-11.3,21.7-7.8,21.7,4.5v113.5c0,14.7,11.9,26.6,26.6,26.6h0c14.7,0,26.6-11.9,26.6-26.6V106.4
				C326.5,93.8,316.3,83.7,303.8,83.7z"/>
		</g>
		<g>
			<path class="st2" d="M131.6,212.5c-7.9,16-15.4,30.7-22.2,45.8c-1.3,3-0.5,7.5,0.6,10.9c1.5,4.5,4.3,8.5,6.3,12.8
				c5.4,11.4,1.4,24-9.3,29.5c-11.2,5.8-26,2.3-31.9-8.1c-5.2-9.3-9.9-18.9-14.4-28.6c-3.7-8.1-3-16.3,1-24.3
				c8.8-17.4,17.4-34.8,26.3-52.1c1.8-3.4,1.9-6.1-0.1-9.5c-4.1-6.9-7.7-14-11.8-21.5c10.4-8.1,20.6-16.1,30.8-24
				c11-8.6,22-17.1,33-25.7c12.5-9.8,14.9-18.2,9.8-34.2c17-7.4,33.9-15.3,51.2-22.2c9.3-3.7,19.5,2,22.8,11.2
				c3.3,9.2-0.9,19.1-10.3,23.3c-23.1,10.4-46.4,20.5-69.6,30.8c-1.7,0.8-3.4,1.6-5.6,2.6c5.9,11.2,11.6,22.1,17.4,33
				c21,39.6,42.1,79.2,63.1,118.7c6.1,11.5,2.3,24.8-8.6,30.6c-11,5.8-24,1.6-30.2-9.9c-15.2-28-30.3-56-45.4-84.1
				C133.7,216.2,133,214.9,131.6,212.5z M48.8,133.8c-10.8,7.4-10.8,20.4-4.5,28c5.8,7.1,18.1,8.8,27.7,1
				c21.6-17.5,43.8-34.3,65.8-51.4c9.4-7.4,11.2-18.6,4.6-27.2c-6.6-8.5-18.1-9.2-27.5-1.9c-5.1,4-10.2,7.9-15.2,11.8
				c-15.3-17.9-33.2-21.1-47.7-8.8c-12.4,10.4-16,31.1-1,46.7C49.9,132.9,49.4,133.4,48.8,133.8z"/>
			<path class="st1" d="M131.6,212.5c-7.9,16-15.4,30.7-22.2,45.8c-1.3,3-0.5,7.5,0.6,10.9c1.5,4.5,4.3,8.5,6.3,12.8
				c5.4,11.4,1.4,24-9.3,29.5c-11.2,5.8-26,2.3-31.9-8.1c-5.2-9.3-9.9-18.9-14.4-28.6c-3.7-8.1-3-16.3,1-24.3
				c8.8-17.4,17.4-34.8,26.3-52.1c1.8-3.4,1.9-6.1-0.1-9.5c-4.1-6.9-7.7-14-11.8-21.5c10.4-8.1,20.6-16.1,30.8-24
				c11-8.6,22-17.1,33-25.7c12.5-9.8,14.9-18.2,9.8-34.2c17-7.4,33.9-15.3,51.2-22.2c9.3-3.7,19.5,2,22.8,11.2
				c3.3,9.2-0.9,19.1-10.3,23.3c-23.1,10.4-46.4,20.5-69.6,30.8c-1.7,0.8-3.4,1.6-5.6,2.6c5.9,11.2,11.6,22.1,17.4,33
				c21,39.6,42.1,79.2,63.1,118.7c6.1,11.5,2.3,24.8-8.6,30.6c-11,5.8-24,1.6-30.2-9.9c-15.2-28-30.3-56-45.4-84.1
				C133.7,216.2,133,214.9,131.6,212.5z M48.8,133.8c-10.8,7.4-10.8,20.4-4.5,28c5.8,7.1,18.1,8.8,27.7,1
				c21.6-17.5,43.8-34.3,65.8-51.4c9.4-7.4,11.2-18.6,4.6-27.2c-6.6-8.5-18.1-9.2-27.5-1.9c-5.1,4-10.2,7.9-15.2,11.8
				c-15.3-17.9-33.2-21.1-47.7-8.8c-12.4,10.4-16,31.1-1,46.7C49.9,132.9,49.4,133.4,48.8,133.8z"/>
			<g id="layer1" transform="translate(-423.47 -1439.6)">
				<g id="layer1-9" transform="translate(333.86 1206)">
					<path id="path2403" d="M170.1,366.3c-0.6,0-1.3-0.1-1.6-0.1c-0.5,0-0.8-0.1-4.5-1.1c-1.6-0.5-3.4-0.9-4.2-1
						c-0.3-0.1-0.6-0.1-0.9-0.2c-0.6-0.2-2.4-1.1-3.9-2c-2.2-1.2-3.6-2-4.8-2.5c-1.8-0.9-3.3-1.8-5.1-3.1c-1.1-0.8-1.7-1.3-2.6-2.2
						c-1.7-1.7-2.6-3-3.4-4.9c-0.6-1.5-1.3-2.6-2.2-3.6c-0.5-0.5-1-1.3-1.4-1.8c-0.4-0.6-0.9-1.6-1.1-2.2c-0.4-1.3-0.6-3.1-0.4-4.3
						c0.2-1.2,0.9-2.3,2.4-4.1c0.2-0.2,0.4-0.5,0.4-0.5c0.1-0.1,0.6-0.7,0.9-1.1c0.9-1.1,1.5-2.1,2.1-3.6c0.9-2.1,1.8-3.6,3-4.9
						c0.6-0.7,1-1,2.2-1.8l0.6-0.4l6.5,0c3.6,0,6.7,0,7,0c0.3,0,1,0,1.6,0.1c6.6,0.2,10.6,0.9,13.5,2.3c1.6,0.8,3.3,2.1,4.1,3.2
						c0.5,0.6,0.7,1.3,0.7,1.9c0,1,0.3,2,0.7,2.7c0.3,0.4,0.5,0.6,1,1c0.8,0.6,1.3,1.4,1.6,2.4c0.2,0.9,0.3,2.1,0.3,3.7
						c0,1.8-0.1,2-1.4,5l-0.7,1.5l0,4.2c0,2.3,0,4.5,0,4.8c0,0.3,0,0.9,0,1.3c0,1.6,0.1,2.3,0.2,4.6l0.1,1.3l-0.4,0.7
						c-0.9,1.6-1.5,2.3-2.6,3.1c-0.7,0.5-1.9,1-2.7,1.2C174.3,366.3,172.9,366.4,170.1,366.3L170.1,366.3z M173.3,365
						c1.5-0.1,2.1-0.3,3-0.7c1.2-0.6,2.1-1.4,2.8-2.4c0.2-0.3,0.6-1.1,0.7-1.4c0.1-0.4,0.2-1,0.1-1.8c-0.2-2.3-0.2-3.7-0.3-9.5
						l0-5.1l0.7-1.6c1.3-2.8,1.4-3.1,1.4-4.4c0.1-1.1,0-2.4-0.2-3c-0.1-0.4-0.4-0.9-0.6-1.2c-0.1-0.2-0.5-0.6-0.9-1
						c-1.3-1.3-1.7-2.2-1.8-3.8c-0.1-0.9-0.2-1.4-0.7-2c-0.8-1-2.8-2.4-4.3-3c-1.3-0.5-2.3-0.7-4.5-0.6c-1.7,0-3.5,0-4.3,0
						c-0.9-0.1-1.3-0.1-2.9-0.3c-1.8-0.2-2.8-0.3-3.8-0.4c-1.7-0.1-3.1,0.1-4.4,0.5c-2.1,0.7-5.3,2.5-7.3,4.1
						c-0.7,0.6-1.2,1-1.3,0.9c-0.1-0.1,1.5-1.5,3.5-2.9c1.6-1.1,2.7-1.7,4.1-2.1c2.7-0.9,5.4-1.1,8.3-0.5c1.4,0.3,3.7,0.4,6.2,0.5
						c1.4,0,2.1,0,2.1-0.1c0.1-0.1-0.2-0.2-0.5-0.3c-1-0.3-3.8-0.5-6.6-0.7c-0.3,0-0.7,0-0.9,0c-0.4,0-1.4-0.1-3.1-0.1
						c-0.6,0-3.5,0-6.3,0l-5.2,0l-0.7,0.5c-0.8,0.6-1,0.7-1.5,1.2c-1.2,1.2-2.1,2.8-3.1,5.1c-0.4,1-1,2.2-1.2,2.5
						c-0.1,0.1-0.3,0.4-0.4,0.6c-0.1,0.2-0.3,0.3-0.2,0.3c0,0,2.1,0.1,2.7,0.1c0.2,0,0.4,0,0.4,0c0,0-0.4,0.1-1,0.1
						c-1.5,0.2-2.5,0.3-2.9,0.6c-0.8,0.4-2.7,3.1-3,4.2c-0.3,1.3-0.1,3,0.7,4.6c0.6,1.3,1.4,2.1,2.3,2.5c0.4,0.2,0.8,0.5,0.8,0.6
						c0,0.1-0.2,0.1-0.6,0c-0.2,0-0.3-0.1-0.3,0c0,0,0.1,0.2,0.5,0.7c0.5,0.7,1.2,1.8,1.6,3c0.9,2.1,2.7,4.4,4.8,6
						c1.5,1.1,4.3,2.9,5.5,3.4c0.8,0.3,3,1.5,5,2.6c1,0.6,2.7,1.4,3.5,1.7c0.4,0.2,0.7,0.2,1.1,0.3c1.3,0.3,2.5,0.6,6.3,1.7
						c2.3,0.6,2.4,0.7,3,0.7C169.9,365.2,172.5,365.1,173.3,365L173.3,365z M171.3,361.1c-3.2,0-5.4-0.2-6.8-0.3
						c-4-0.5-8.9-1.8-12.3-3.2c-1.2-0.5-3.5-1.8-5.4-2.9c-1.2-0.7-2.1-1.4-2.1-1.5c0-0.2,0.9,0.3,2.7,1.4c2.1,1.2,2.6,1.6,3.8,2.1
						c2.4,1.2,4.5,1.9,8.5,2.8c3.8,0.9,5.3,1.1,9.8,1.3c0.9,0,1.8,0.1,2,0.1c0.7,0,2.1,0.1,2.2,0.1c0.1,0,0.5-0.2,1-0.6
						c2.5-1.7,2.6-1.8,2.7-2.9c0-0.3,0.1-0.5,0.1-0.5c0,0,0.1,1.2,0,1.4c0,0.2-0.2,0.5-0.4,0.7c-0.2,0.2-0.8,0.6-2.1,1.5l-1,0.7
						l-0.4,0C173.5,361.1,172.4,361.1,171.3,361.1L171.3,361.1z M167.2,359.3c-1.2,0-3.8-0.1-5.5-0.3c-2.2-0.2-3.1-0.4-5.4-1.3
						c-1.8-0.7-4.2-1.9-6.6-3.2c-1-0.5-2.1-1.2-2.3-1.4c-0.2-0.1-0.2-0.2-0.1-0.2c0.2,0,1.3,0.6,3,1.5c1.6,0.9,3.6,1.8,5.1,2.5
						c0.2,0.1,1.1,0.5,2,0.9l1.6,0.7l0.5,0c0.3,0,0.8,0,1.2,0.1c1.5,0.1,4.4,0.2,5.3,0.3c0.5,0,1.6,0,2.4,0c1.6,0,2.3-0.1,3.1-0.2
						c1.1-0.3,1.6-0.6,2.7-1.6c0.6-0.6,0.9-0.8,1-0.8c0.1,0,0.1,0,0,0.1c-0.2,0.5-1.4,1.6-2.5,2.2c-0.6,0.3-1.3,0.5-2.3,0.6
						C169.9,359.3,168.4,359.3,167.2,359.3L167.2,359.3z M162.9,357.5l-0.3,0L162.9,357.5c0.4-0.1,4.3-0.1,4.7-0.1l0.3,0l-0.3,0
						C167.4,357.5,163.3,357.5,162.9,357.5L162.9,357.5z M163.1,356.1c-0.1,0-0.6,0-1.1-0.1c-3-0.2-5.5-0.6-7.5-1.4
						c-2.1-0.8-4.6-2.6-6.5-4.5c-1.5-1.5-2.4-2.7-3.8-5.1c-0.8-1.3-1.3-2-1.5-2.4c-0.2-0.3-0.3-0.4-0.2-0.7c0.1-0.3,0-0.7-0.2-1.1
						c-0.2-0.4-0.4-0.5-1.1-0.5c-0.8,0-1.3-0.2-1.3-0.5c0-0.1,0-0.2,0.1-0.2c0.1-0.1,0.3-0.2,0.5-0.3c0.5-0.2,1.1-0.5,1.3-0.7
						c0.4-0.3,0.5-0.6,0.7-1.3c0.2-0.8,0.6-1.3,0.8-1c0.1,0.1,0.2,0.3,0.2,0.6c0.2,0.8,2.6,2.2,6.9,3.9c2.4,1,5.9,2.2,7.4,2.6
						c1.9,0.5,3.8,0.9,5.7,1.1c0.8,0.1,3.5,0.1,4.1,0c2.2-0.3,3.7-0.8,5.1-1.7c1.4-0.9,1.9-1.8,2.1-3.4c0-0.2,0.1-0.6,0.1-0.8
						c0.1-0.6,0.3-0.8,0.5-0.7c0.2,0,0.3,0.4,0.4,1c0.1,0.4,0.2,0.7,0.4,0.9c0.2,0.2,0.3,0.4,0.4,1c0.5,2.1,0.6,6.8,0.2,9.5
						c-0.5,2.9-1.6,4.2-4.3,4.9c-1.2,0.3-3.1,0.6-5.3,0.7C166.8,356.1,163.5,356.1,163.1,356.1L163.1,356.1z M164.9,354.8
						c0-0.1,0.1-0.3,0.1-0.5s0.1-0.6,0.2-1.1c0.2-1.2,0.2-1.5-0.1-1.6c-0.1-0.1-0.5-0.1-1.2-0.2c-0.7-0.1-1.5-0.2-1.9-0.3
						c-0.3-0.1-0.4-0.1-0.4,0c-0.1,0.1-0.2,0.6-0.2,1.5c-0.1,1.2,0,2.1,0.1,2.2c0.1,0.1,1,0.2,2.4,0.2l1,0L164.9,354.8z
						 M167.6,354.9c0.3-0.1,0.4-0.2,0.7-0.8c0.2-0.4,0.8-2,0.8-2.1c0-0.1-0.8-0.1-1.6-0.1c-0.9,0-1,0-1.2,0.8
						c-0.1,0.4-0.4,2.1-0.4,2.2c0,0,0.3,0,0.7,0C167.2,355,167.5,354.9,167.6,354.9L167.6,354.9z M170.3,354.6
						c0.2-0.1,0.5-0.1,0.6-0.1c0.1,0,0.3,0,0.3-0.1c0,0,0-0.2,0-0.4c0-0.5,0.1-0.7,0.8-2.3c0-0.1,0.1-0.2,0.1-0.2s-0.2,0-0.5,0.1
						c-0.3,0.1-0.6,0.2-0.7,0.2c-0.3,0.1-0.4,0.1-0.6,0.5c-0.1,0.3-0.7,2.1-0.7,2.3C169.6,354.7,169.6,354.7,170.3,354.6
						L170.3,354.6z M160,354.6c0.1-0.1,0.2-0.3,0.2-0.8c0-0.5,0.1-3.1,0.1-3.1c0,0-0.4-0.1-0.8-0.2c-1.4-0.4-2.1-0.7-3.8-1.4
						c-0.3-0.1-0.5-0.2-0.5-0.2c0,0,0,0.3,0,0.7c0,0.9-0.1,1.2-0.5,2c-0.6,1.3-0.5,1.5,0.9,2.1C157.4,354.3,159.7,354.8,160,354.6
						L160,354.6z M172.8,354c0.1-0.1,0.4-0.1,0.5-0.1c0.2,0,0.4-0.1,0.5-0.2c0.2-0.1,0.7-0.5,0.7-0.6c0,0-0.1,0-0.3,0
						c-0.2,0-0.3,0-0.4,0c-0.2-0.1-0.2-0.5,0-1.3c0.2-0.6,0.1-0.8-0.1-0.7c-0.3,0.2-0.8,1-1.1,2C172.2,354.1,172.2,354.2,172.8,354
						L172.8,354z M175.1,352.7c0.3-0.4,0.9-2,0.9-2.5c0.1-0.6-0.8,1.3-1.1,2.2C174.8,352.9,174.9,353,175.1,352.7L175.1,352.7z
						 M153.5,351.8c0.7-1.7,0.9-2.6,0.6-3.1c-0.1-0.2-0.2-0.3-0.8-0.5c-0.8-0.3-1.5-0.6-3-1.4l-1-0.5l0,0.6c0,0.9-0.1,1.2-0.5,1.8
						c-0.2,0.4,0,0.6,2.1,2.2c0.5,0.4,1.2,1,1.6,1.2c0.3,0.3,0.6,0.5,0.6,0.5S153.3,352.3,153.5,351.8L153.5,351.8z M147.9,347.9
						c0.1-0.1,0.2-0.2,0.2-0.2c0.1-0.3,0.1-1.4-0.1-1.8c-0.2-0.4-0.6-0.7-1.8-1.3c-0.7-0.4-1-0.5-1.1-0.5c-0.1,0.1,1.8,3,2.5,3.8
						c0.1,0.1,0.2,0.2,0.2,0.2C147.7,348,147.8,348,147.9,347.9L147.9,347.9z M161.4,347.6c0-0.2,0-0.7-0.1-1c0-0.3,0-0.6,0-0.8
						c0-0.1,0-0.2,0-0.2c0,0-0.1-0.1-0.2-0.1s-0.6-0.1-1.1-0.2c-3.3-0.8-3.5-0.8-3.6-0.6c-0.1,0.1-0.3,1.2-0.4,1.6
						c-0.1,0.5,0,0.7,0.3,0.9c0.2,0.1,1.1,0.4,1.7,0.5c0.8,0.2,1.6,0.3,2.4,0.3c0.4,0,0.8,0,0.9,0l0.2,0L161.4,347.6L161.4,347.6z
						 M166,348c0-0.1-0.2-1.2-0.3-1.5c-0.1-0.2-0.1-0.3-0.2-0.3c-0.1,0-0.9-0.2-2-0.3c-0.5-0.1-0.9-0.1-1-0.1l-0.2,0v1.2v1.2h1.8
						C165.9,348,166,348,166,348L166,348z M169.4,347.9c0.6-0.1,1.1-0.2,1.3-0.3c0.2-0.1,0.2-0.2,0-1.2c-0.2-0.8-0.2-0.8-0.3-0.8
						c-0.1,0-3.5,0.6-3.5,0.6c0,0,0.1,1.4,0.2,1.5c0.1,0.1,0.2,0.2,0.3,0.3C167.4,348,168.9,348,169.4,347.9L169.4,347.9z
						 M172.5,347.5c0.1,0,0.2,0,0.3-0.1c0.2,0,0.3-0.1,0.4-0.4c0.3-0.7,0.3-1.7,0.1-2.3c-0.1-0.4-0.2-0.4-0.9,0
						c-0.8,0.5-0.9,0.6-0.7,1.3c0.1,0.3,0.1,0.7,0.1,0.9c0.1,0.6,0.1,0.7,0.4,0.6C172.3,347.6,172.5,347.5,172.5,347.5L172.5,347.5z
						 M175.1,346.6c0.1,0,0.2-0.1,0.3-0.2c0.2-0.2,0.2-0.2,0.2-0.4c0-0.3-0.1-0.7-0.3-1.4c-0.3-0.9-0.6-1.4-0.6-1.3
						c-0.1,0.1-0.1,1.1,0,2.2C174.7,346.6,174.7,346.8,175.1,346.6L175.1,346.6z M154.7,346.4c0-0.1,0.1-0.2,0.1-0.3
						c0-0.1,0.1-0.6,0.2-1c0.2-0.9,0.2-0.9-0.1-1.1c-0.2-0.1-0.8-0.4-1.3-0.6c-1-0.3-2.3-0.8-3.1-1.1c-1-0.4-1.4-0.4-1.5-0.3
						c-0.1,0.1-0.1,0.5,0,0.7c0.1,0.5,0.6,1.2,1.1,1.8c0.4,0.4,0.6,0.5,0.9,0.6c0.5,0.1,0.9,0.3,2.2,0.8
						C154.4,346.5,154.6,346.6,154.7,346.4L154.7,346.4z M147.9,343.8c0.1-0.2,0.1-0.9,0-1.7c0-0.3,0-0.6,0-0.6
						c0-0.1-0.1-0.1-1.7-1.1c-2.5-1.4-3.1-1.6-3-0.9c0,0.3,0.3,1.1,0.5,1.6c0.3,0.6,0.8,1.1,1.9,1.7c0.9,0.5,2.2,1.2,2.3,1.2
						C147.8,343.9,147.9,343.9,147.9,343.8L147.9,343.8z M176,342.7c-0.1-0.2-0.3-0.7-0.4-0.7c0,0-0.1,0,0,0.1
						c0.1,0.5,0.3,0.9,0.4,0.8C176.1,342.9,176.1,342.9,176,342.7L176,342.7z M139.4,343.9c-0.1,0-0.5-0.2-0.7-0.3
						c-1.8-0.9-2.1-1.7-2.2-5.1c0-1.4,0-2.2,0.1-2.7c0.2-0.6,0.7-1.5,1.1-2c0.4-0.4,0.9-0.7,1.6-0.8c0.3-0.1,2.7-0.1,3.4,0l0.3,0
						l-0.6,0.1c-0.3,0-0.7,0.1-0.8,0.1c-0.1,0-0.5,0.1-1,0.1c-2.2,0.2-2.4,0.3-3.1,1.5c-0.4,0.6-0.6,1.1-0.7,1.5
						c-0.1,0.3-0.1,0.5-0.1,1.6c0,2.4,0.1,3.5,0.6,4.3c0.3,0.4,0.5,0.7,1.3,1.1c0.8,0.5,1.1,0.7,1.1,0.8
						C139.8,344,139.6,344,139.4,343.9L139.4,343.9z M164.8,343.9c-0.3-0.1-0.6-0.2-0.8-0.3c-0.1-0.1-0.3-0.5-0.3-0.7
						c0-0.1,0-0.2,0.1-0.3c0.1-0.3,0.4-0.3,0.7-0.1c0.4,0.3,0.6,0.3,1.1,0.1c0.5-0.3,1.2-1.1,1.6-1.9c0.2-0.4,0.2-0.7,0.1-1
						c-0.2-0.4-0.4-0.6-0.8-0.7c-0.5-0.1-1-0.9-1.2-1.8c0-0.2-0.1-0.7-0.1-1.1c0-1-0.1-1.1-0.9-1.6c-0.4-0.3-0.7-0.5-0.8-0.7
						c0-0.2,0-0.3,0.2-0.4c0.2-0.1,0.3-0.1,0.7-0.1c0.6,0,1-0.2,1.6-0.7c1-0.9,1.7-1.2,2.9-1.4c0.7-0.1,2.4-0.1,2.8,0
						c0.6,0.1,0.9,0.3,1.3,0.7c0.3,0.3,0.5,0.6,0.5,0.8c0,0.6-0.8,0.9-3.1,1.1c-2.6,0.3-4,0.8-4.2,1.4c-0.1,0.2-0.1,0.6,0,1.1
						c0.1,0.9,0.2,1.1,1,1.7c0.9,0.7,1.6,1.2,2.3,2c0.7,0.8,1,1,1.4,1c0.3,0.1,0.7,0.3,1,0.5c0.3,0.2,0.5,0.5,0.5,0.6
						c0,0.1-0.3,0-0.6-0.2c-0.5-0.3-1.5-0.8-1.8-0.9c-0.4-0.1-0.6-0.1-0.8,0.3c-0.2,0.3-0.3,0.3-0.5,0.1c-0.2-0.2-0.4-0.2-0.7,0.2
						c-0.2,0.2-0.5,0.6-0.9,1c-0.4,0.4-0.9,1-1.1,1.1C165.7,343.9,165.3,344,164.8,343.9L164.8,343.9z M171.1,332.5
						c0.2,0,0.3,0,0.3-0.1c0,0-0.3-0.1-0.7-0.1c-0.4,0-0.8,0-0.8,0.1C169.9,332.5,170.7,332.6,171.1,332.5L171.1,332.5z
						 M157.3,342.7c-0.2-0.1-0.5-0.4-0.6-0.5c-0.2-0.2-0.3-0.6-0.4-1c-0.1-0.6,0-1.4,0.2-1.9c0.3-0.5,0.8-0.8,1.6-0.8
						c1-0.1,1.6,0.3,1.3,0.8c-0.1,0.1-0.3,0.2-0.7,0.3c-1.1,0.2-1.3,0.4-1.3,0.9c0,0.3,0.1,0.6,0.4,0.9c0.2,0.3,0.3,0.4,0.3,0.7
						c0,0.2-0.1,0.5-0.2,0.6C157.7,342.8,157.5,342.8,157.3,342.7L157.3,342.7z M139.1,342.4c-0.1-0.1-0.4-0.3-0.5-0.6
						c-0.3-0.5-0.5-1.8-0.5-2.8c0-1.3,0.3-2.4,1-3.3c0.2-0.3,0.7-0.8,1-1c0.9-0.6,2.8-0.8,4.1-0.5c0.2,0.1,0.6,0.2,1,0.5
						c1.2,0.6,2.3,1.1,3.2,1.3c0.7,0.2,1.4,0.1,2.3-0.3c0.6-0.3,1-0.6,1.5-1.1c0.5-0.5,0.6-0.6,0.9-0.5c0.2,0.1,0.3,0.2,0.3,0.4
						c0,0.7-1.2,1.9-2.3,2.4c-1.3,0.5-2.7,0.5-4.4-0.1c-0.9-0.3-2.3-1-2.6-1.2c-0.2-0.2-0.3-0.2-0.7-0.3c-0.5-0.1-1.4,0-2,0.2
						c-0.5,0.2-0.8,0.4-1.2,0.9c-0.3,0.4-0.5,0.8-0.7,1.2c-0.4,1-0.4,1.3-0.2,2.3c0.3,1.2,0.4,1.5,0.4,1.9c0,0.3,0,0.4-0.1,0.5
						C139.4,342.4,139.3,342.5,139.1,342.4L139.1,342.4z M177.9,342.3c0-0.1,0.5-0.4,1.4-1c1.2-0.7,1.3-0.8,1.6-2.1
						c0.2-0.9,0.2-1.4,0.2-2c-0.1-1.2-0.4-1.9-1.2-2.5c-0.2-0.2-0.6-0.4-0.9-0.8c-0.5-0.5-0.7-0.7-1-0.7c-0.1,0-0.9,0-1.8,0
						c-1.6,0-1.7,0-1.8-0.1c-0.5-0.2,0-0.5,0.6-0.4c0.4,0.1,1.1,0.1,2,0.1c1.3,0,1.5,0.1,2.3,0.8c0.5,0.5,1,0.9,1.2,1
						c0.3,0.2,0.9,1.6,1,2.3c0.1,0.6-0.2,2.4-0.5,3.5c-0.1,0.3-0.2,0.4-0.3,0.5c-0.4,0.4-2,1.2-2.5,1.3
						C177.9,342.3,177.9,342.3,177.9,342.3L177.9,342.3z M159,342.2c-0.2-0.1-0.4-0.4-0.4-0.8c0-0.4,0-0.4,0.2-0.6
						c0.2-0.2,0.4-0.3,1.2-0.3c0.8,0,1.3,0.1,1.8,0.3c0.6,0.3,0.7,0.6,0.3,0.8c-0.1,0-0.5,0.1-1.1,0.1c-0.6,0-1.1,0-1.2,0.1
						c-0.1,0-0.2,0.1-0.3,0.2C159.3,342.1,159.2,342.2,159,342.2C159.1,342.2,159.1,342.2,159,342.2L159,342.2z M178.4,340.4
						c0-0.1,0.1-0.4,0.5-0.8c0.6-0.7,0.7-0.8,0.7-1.4c0-0.4-0.1-1.2-0.2-1.8c-0.1-0.7-0.3-0.9-0.9-1.3c-0.4-0.2-0.8-0.5-0.7-0.6
						c0,0,0.1-0.1,0.1-0.1c0.1,0,0.5,0.2,0.9,0.3c0.6,0.3,0.8,0.6,1,1.2c0.2,0.8,0.3,2.5,0.2,3c-0.1,0.3-0.3,0.6-0.6,0.9
						C178.9,340.3,178.5,340.6,178.4,340.4L178.4,340.4z M152,339.9c-0.2,0-0.2-0.1-0.2-0.1c0.1-0.1,0.7-0.1,1.8-0.2
						c1.4,0,1.9-0.2,2.1-0.5c0.1-0.1,0.1-0.1,0-0.3c-0.1-0.3-0.1-0.4,0.1-0.4c0.1,0,0.2,0,0.2,0.1c0.1,0.2,0,0.7-0.3,1
						c-0.2,0.2-0.3,0.2-0.9,0.3C154.3,339.9,152.2,340,152,339.9L152,339.9z M172.1,338.3c-0.6-0.1-0.8-0.2-1.1-0.4
						c-0.3-0.3-0.5-0.7-0.4-1c0.1-0.4,0.4-0.4,1.3,0c0.6,0.3,0.7,0.3,1.4-0.2c1.2-1,1.5-1.1,2.4-1.1c1.1-0.1,2.2,0.2,2.7,0.7
						c0.3,0.3,0.4,0.8,0.1,1c-0.2,0.2-0.6,0.2-1-0.2c-0.8-0.6-1.9-0.6-2.6-0.1c-0.3,0.2-0.4,0.4-0.6,0.8c-0.1,0.3-0.3,0.5-0.5,0.6
						C173.6,338.4,172.5,338.4,172.1,338.3L172.1,338.3z M157.9,335.4c-0.5-0.3-1.6-0.9-1.9-1c-1.8-0.9-3.7-1.1-5.8-0.6
						c-1.1,0.3-1.8,0.2-2.2-0.1c-0.4-0.3-0.3-0.9,0.2-1.7c0.8-1.3,2.6-2.1,5.1-2.2c1.7-0.1,3.1,0.2,4.3,0.9c0.8,0.5,1.9,1.4,2.2,1.9
						c0.3,0.4,0.3,0.9,0.1,1.4c-0.2,0.4-1.1,1.2-1.6,1.5C158.1,335.5,158.1,335.5,157.9,335.4L157.9,335.4z M158.6,333.7
						c0.1-0.1,0.1-0.2,0.1-0.3c0-0.2-0.5-0.8-1.1-1.2c-0.9-0.6-2.5-1.3-2.7-1.2c0,0-0.3,1.1-0.3,1.3c0,0.2,0.1,0.3,0.4,0.3
						c0.4,0.1,0.8,0.2,1.9,0.7c0.8,0.4,1,0.5,1.3,0.5C158.4,333.8,158.4,333.8,158.6,333.7L158.6,333.7z M149.8,332.6
						c0.4-0.1,0.7-0.4,0.6-0.5c-0.1-0.1-0.4-0.1-0.7,0c-0.3,0.1-0.7,0.5-0.6,0.6C149.2,332.8,149.4,332.7,149.8,332.6L149.8,332.6z
						 M146.5,334.2c0,0,0-0.1,0-0.1c0-0.2,0.2-0.3,0.5-0.3c0.1,0,0.2,0,0.3,0.1c0,0,0,0.1-0.1,0.2
						C146.9,334.2,146.5,334.3,146.5,334.2L146.5,334.2z M145.5,333.4c-0.2-0.1-0.4-0.2-0.6-0.3c-0.2-0.2,0-0.3,0.6-0.4
						c0.4-0.1,1.7-0.3,1.7-0.3c0,0-0.3,0.1-0.6,0.3c-0.6,0.3-0.9,0.4-0.8,0.5c0,0,0.2,0.1,0.5,0.1c0.2,0.1,0.5,0.1,0.5,0.1
						C146.7,333.5,145.8,333.4,145.5,333.4L145.5,333.4z M165.8,331.3c0-1.8,0.2-2.7,0.6-3c0.1-0.1,0.2,0,0.2,0.1
						c0,0-0.1,0.2-0.2,0.4c-0.2,0.5-0.4,1.1-0.5,2.1c-0.1,0.5-0.1,0.8-0.1,0.8C165.8,331.8,165.8,331.6,165.8,331.3L165.8,331.3z
						 M147.4,330c0-0.3,0.8-1.2,1.8-2c0.9-0.7,1.5-1.1,2.6-1.4c0.9-0.3,1.7-0.4,2.8-0.5c0.2,0,0.5,0,0.6,0c0.5,0,2.6,0,3,0
						c0.7,0.1,1,0.2,0.7,0.3c-0.1,0-1,0-2.2,0c-1.7-0.1-3.2,0.1-4.5,0.5c-1.4,0.4-2.2,0.9-3.7,2.4C148,329.8,147.6,330.1,147.4,330
						C147.5,330.1,147.4,330.1,147.4,330L147.4,330z M159.2,329.6c-0.1-0.9-0.2-1.4-0.8-2.3c-0.3-0.5-0.4-0.6-0.3-0.7
						c0-0.1,0.3,0.1,0.6,0.4c0.3,0.3,0.5,0.8,0.6,1.3c0.1,0.4,0.1,0.8,0,1.5l0,0.4L159.2,329.6L159.2,329.6z M173.6,329.9
						c0-0.1-0.1-0.4-0.2-0.6c-0.2-0.7-0.5-1.1-1.4-1.6c-0.6-0.4-1.1-0.6-1.5-0.7c-0.3-0.1-0.4-0.1-0.9,0c-1.1,0-2.8,0.3-3.7,0.5
						c-0.6,0.1-0.7,0.1-0.8,0.1c-0.2-0.2,0.6-0.5,2.2-0.7c1.9-0.2,2.8-0.3,3.3-0.2c0.3,0.1,1.1,0.5,1.6,0.8c0.7,0.4,1.2,1,1.4,1.6
						c0.1,0.4,0.2,1.1,0,1.1C173.7,330.1,173.7,330,173.6,329.9L173.6,329.9z M146,329.6c0.1-0.2,0.9-1.3,1.5-1.8
						c1.6-1.5,3.8-2.6,5.8-3.1c1.2-0.3,2.3-0.4,3.8-0.4c1.6,0,2.3,0,3.7,0.3c1.5,0.3,2.5,0.4,4.6,0.4c1.8,0,2.3,0,4.1-0.2
						c1.9-0.2,3-0.2,3.5,0.1c0.2,0.1,0.3,0.3,0.3,0.5c0,0.1,0,0.1-0.1,0.1c-0.1,0-0.3-0.1-0.4-0.2c-0.1-0.1-0.4-0.2-0.5-0.3
						c-0.2-0.1-0.3-0.1-1-0.1c-0.4,0-0.9,0.1-1.2,0.1c-1,0.1-2.3,0.2-3.6,0.3c-0.7,0-1.2,0-1.3,0c0,0-0.3,0-0.7,0
						c-1.3,0-2.7-0.2-4-0.4c-2.1-0.4-4.2-0.4-6.2-0.1c-2.8,0.6-5.2,1.8-6.9,3.6C146.9,329,146.3,329.6,146,329.6l0,0.1L146,329.6
						L146,329.6z"/>
				</g>
			</g>
		</g>
		<g>
			<path class="st0" d="M201.6,63.3c-2.6,1.1-2.5,3.9-2.4,5.2l0.1,4.6c0,1.1-0.2,1.7-0.6,2.1c-0.8-1.2-2.3-1.7-3.7-1.1l-4.9,2
				c-1.5,0.6-2.3,2.4-1.6,4l5.8,13.9c0.6,1.5,2.4,2.3,4,1.6l4.9-2c1-0.4,1.7-1.4,1.8-2.5c1.6,0,3.4-0.3,5-1l6.1-2.6
				c4.3-1.8,6.3-6.7,4.5-11l-1.9-4.5c-1.3-3-4.7-4.4-7.7-3.2l-2,0.8l-1.7-4.1C206.3,63.4,203.8,62.4,201.6,63.3L201.6,63.3z
				 M202,90.7c0,0,0,0.1-0.1,0.1l-4.9,2c0,0-0.1,0-0.1-0.1l-5.8-13.9c0,0,0-0.1,0.1-0.1l4.9-2c0,0,0.1,0,0.1,0.1L202,90.7L202,90.7z
				 M212.1,71.7c1.5-0.6,3.3,0.1,3.9,1.6l1.9,4.5c1.2,2.8-0.2,6-2.9,7.1l-6.1,2.6c-1.8,0.7-3.7,0.9-4.7,0.6l-4.3-10.2
				c1.2-0.7,2.5-2,2.4-4.9l-0.1-4.6c-0.1-1.9,0.3-2.2,0.6-2.3c0.7-0.3,1.5,0,1.8,0.7l2.3,5.5c0.3,0.8,1.2,1.1,1.9,0.8L212.1,71.7z"
				/>
		</g>
	</g>
</g>
</svg>
