<?xml version="1.0" encoding="utf-8"?>
<!-- Generator: Adobe Illustrator 23.0.1, SVG Export Plug-In . SVG Version: 6.00 Build 0)  -->
<svg version="1.1" id="Слой_1" xmlns="http://www.w3.org/2000/svg" xmlns:xlink="http://www.w3.org/1999/xlink" x="0px" y="0px"
	 viewBox="0 0 366.5 374.5" style="enable-background:new 0 0 366.5 374.5;" xml:space="preserve">
<style type="text/css">
	.st0{fill:#231F20;}
	.st1{fill:#FFFFFF;}
	.st2{fill:none;stroke:#231F20;stroke-width:31.1811;stroke-miterlimit:10;}
</style>
<g id="Layer_1">
	<path class="st0" d="M301.3,374.5H65.2c-36,0-65.2-29.2-65.2-65.2V65.2C0,29.2,29.2,0,65.2,0h236.1c36,0,65.2,29.2,65.2,65.2v244.1
		C366.5,345.3,337.3,374.5,301.3,374.5z"/>
</g>
<g>
	<g>
		<g>
			<path class="st1" d="M303.8,83.7h-48.5c-9.2,0-17.5,5.5-21,14l-46.1,107.5c0,0,13.3,23.1,26.9,48.5l36.4-84
				c4.9-11.3,21.7-7.8,21.7,4.5v113.5c0,14.7,11.9,26.6,26.6,26.6l0,0c14.7,0,26.6-11.9,26.6-26.6V106.4
				C326.5,93.8,316.3,83.7,303.8,83.7z"/>
		</g>
		<g>
			<path class="st2" d="M131.6,212.5c-7.9,16-15.4,30.7-22.2,45.8c-1.3,3-0.5,7.5,0.6,10.9c1.5,4.5,4.3,8.5,6.3,12.8
				c5.4,11.4,1.4,24-9.3,29.5c-11.2,5.8-26,2.3-31.9-8.1c-5.2-9.3-9.9-18.9-14.4-28.6c-3.7-8.1-3-16.3,1-24.3
				c8.8-17.4,17.4-34.8,26.3-52.1c1.8-3.4,1.9-6.1-0.1-9.5c-4.1-6.9-7.7-14-11.8-21.5c10.4-8.1,20.6-16.1,30.8-24
				c11-8.6,22-17.1,33-25.7c12.5-9.8,14.9-18.2,9.8-34.2c17-7.4,33.9-15.3,51.2-22.2c9.3-3.7,19.5,2,22.8,11.2s-0.9,19.1-10.3,23.3
				c-23.1,10.4-46.4,20.5-69.6,30.8c-1.7,0.8-3.4,1.6-5.6,2.6c5.9,11.2,11.6,22.1,17.4,33c21,39.6,42.1,79.2,63.1,118.7
				c6.1,11.5,2.3,24.8-8.6,30.6c-11,5.8-24,1.6-30.2-9.9c-15.2-28-30.3-56-45.4-84.1C133.7,216.2,133,214.9,131.6,212.5z
				 M48.8,133.8c-10.8,7.4-10.8,20.4-4.5,28c5.8,7.1,18.1,8.8,27.7,1c21.6-17.5,43.8-34.3,65.8-51.4c9.4-7.4,11.2-18.6,4.6-27.2
				c-6.6-8.5-18.1-9.2-27.5-1.9c-5.1,4-10.2,7.9-15.2,11.8C84.4,76.2,66.5,73,52,85.3c-12.4,10.4-16,31.1-1,46.7
				C49.9,132.9,49.4,133.4,48.8,133.8z"/>
			<path class="st1" d="M131.6,212.5c-7.9,16-15.4,30.7-22.2,45.8c-1.3,3-0.5,7.5,0.6,10.9c1.5,4.5,4.3,8.5,6.3,12.8
				c5.4,11.4,1.4,24-9.3,29.5c-11.2,5.8-26,2.3-31.9-8.1c-5.2-9.3-9.9-18.9-14.4-28.6c-3.7-8.1-3-16.3,1-24.3
				c8.8-17.4,17.4-34.8,26.3-52.1c1.8-3.4,1.9-6.1-0.1-9.5c-4.1-6.9-7.7-14-11.8-21.5c10.4-8.1,20.6-16.1,30.8-24
				c11-8.6,22-17.1,33-25.7c12.5-9.8,14.9-18.2,9.8-34.2c17-7.4,33.9-15.3,51.2-22.2c9.3-3.7,19.5,2,22.8,11.2s-0.9,19.1-10.3,23.3
				c-23.1,10.4-46.4,20.5-69.6,30.8c-1.7,0.8-3.4,1.6-5.6,2.6c5.9,11.2,11.6,22.1,17.4,33c21,39.6,42.1,79.2,63.1,118.7
				c6.1,11.5,2.3,24.8-8.6,30.6c-11,5.8-24,1.6-30.2-9.9c-15.2-28-30.3-56-45.4-84.1C133.7,216.2,133,214.9,131.6,212.5z
				 M48.8,133.8c-10.8,7.4-10.8,20.4-4.5,28c5.8,7.1,18.1,8.8,27.7,1c21.6-17.5,43.8-34.3,65.8-51.4c9.4-7.4,11.2-18.6,4.6-27.2
				c-6.6-8.5-18.1-9.2-27.5-1.9c-5.1,4-10.2,7.9-15.2,11.8C84.4,76.2,66.5,73,52,85.3c-12.4,10.4-16,31.1-1,46.7
				C49.9,132.9,49.4,133.4,48.8,133.8z"/>
		</g>
	</g>
</g>
</svg>
