<?xml version="1.0" encoding="utf-8"?>
<!-- Generator: Adobe Illustrator 23.0.1, SVG Export Plug-In . SVG Version: 6.00 Build 0)  -->
<svg version="1.1" id="Layer_1" xmlns="http://www.w3.org/2000/svg" xmlns:xlink="http://www.w3.org/1999/xlink" x="0px" y="0px"
	 viewBox="0 0 366.5 374.5" style="enable-background:new 0 0 366.5 374.5;" xml:space="preserve">
<style type="text/css">
	.st0{fill:#231F20;}
</style>
<path class="st0" d="M344.2,270c20.6-34.8,26.9-77.7,18.9-120.4c-3.2-16.8-8.6-33-16.1-48.1c-2.5-4.9-8.5-7-13.4-4.5
	s-7,8.5-4.5,13.4c6.7,13.4,11.5,27.8,14.3,42.8C360,241.7,301.4,327,213,343.5c-29.5,5.5-59.9,2.8-87.9-7.9c-2.6-1-5.6-0.9-8.1,0.4
	c-25.7,13-61.9,20-91.2,18.2c15-29.9,19.2-54.6,21.3-77c0.2-2.2-0.3-4.4-1.5-6.3c-11.3-17.6-18.9-37.1-22.8-57.9
	C6.3,124.6,64.9,39.2,153.3,22.8c41.8-7.8,84.3,0.8,119.8,24.3c4.6,3,10.8,1.8,13.9-2.8c3-4.6,1.8-10.8-2.8-13.9
	c-39.8-26.3-87.6-36-134.5-27.3C50.4,21.6-15.4,117.4,3.1,216.7c4.1,22.1,12.1,43,23.7,62c-2.7,25.7-8.3,49.2-25.5,78.7
	c-1.6,2.8-1.8,6.3-0.4,9.2c1.4,3,4.1,5.1,7.3,5.6c8.4,1.5,17.5,2.2,27,2.2c29,0,61.4-6.8,86.9-18.7c23.1,8.2,47.7,13.3,71.9,10.1
	C251.6,358.4,308.4,330.3,344.2,270z"/>
<path class="st0" d="M312.9,78.4c1.5,0,3-0.3,4.5-1.1c4.9-2.5,6.9-8.5,4.5-13.4v-0.1c-2.5-4.9-8.5-6.9-13.4-4.4s-6.9,8.5-4.5,13.4
	C305.7,76.3,309.2,78.4,312.9,78.4L312.9,78.4z"/>
<path class="st0" d="M203.8,285.3c16.2,0,29.4-13.2,29.4-29.5v-30.4H248c22.2,0,40.2-18,40.2-40.1v-32.8c0-31.4-25.5-56.9-56.9-56.9
	h-45.2c-11.9,0-24.2,2.7-33.9,7.1c-3.6-6.3-10.3-10.5-18-10.5H98.3c-11.4,0-20.7,9.3-20.7,20.7v102c0,11.4,9.3,20.7,20.7,20.7h35.9
	c9.9,0,18.3-7.2,20.2-16.6c3.8,1.1,6.6,4,9.4,11.2l11.2,29.3C178,267.2,184.9,285.3,203.8,285.3L203.8,285.3z M134.9,112.9l0,102
	c0,0.4-0.4,0.7-0.7,0.7H98.3c-0.4,0-0.7-0.4-0.7-0.7v-102c0-0.4,0.4-0.7,0.7-0.7h35.9C134.6,112.2,134.9,112.6,134.9,112.9
	L134.9,112.9z M223.3,205.6c-5.5,0-10,4.5-10,10V256c0,5.2-4.2,9.4-9.4,9.4c-2.5,0-5.5-1-10.1-13l-11.2-29.3
	c-7-18.1-18.3-23-27.7-24.3V124c5.8-4,18.3-8.3,31.2-8.3h45.2c20.3,0,36.9,16.5,36.9,36.9v32.8c0,11.1-9.1,20.1-20.2,20.1
	L223.3,205.6z"/>
</svg>
